<svg width="1200" height="800" xmlns="http://www.w3.org/2000/svg">
  <!-- Background gradient -->
  <defs>
    <linearGradient id="bgGradient" x1="0%" y1="0%" x2="100%" y2="100%">
      <stop offset="0%" style="stop-color:#050710;stop-opacity:1" />
      <stop offset="100%" style="stop-color:#0d1140;stop-opacity:1" />
    </linearGradient>
    <linearGradient id="heroGradient" x1="0%" y1="0%" x2="100%" y2="100%">
      <stop offset="0%" style="stop-color:#2563eb;stop-opacity:0.3" />
      <stop offset="100%" style="stop-color:#ea580c;stop-opacity:0.3" />
    </linearGradient>
    <linearGradient id="heroOverlay" x1="0%" y1="0%" x2="0%" y2="100%">
      <stop offset="0%" style="stop-color:#000000;stop-opacity:0.3" />
      <stop offset="70%" style="stop-color:#000000;stop-opacity:0.5" />
      <stop offset="100%" style="stop-color:#000000;stop-opacity:0.9" />
    </linearGradient>
    <linearGradient id="glassNav" x1="0%" y1="0%" x2="0%" y2="100%">
      <stop offset="0%" style="stop-color:#ffffff;stop-opacity:0.08" />
      <stop offset="100%" style="stop-color:#ffffff;stop-opacity:0.08" />
    </linearGradient>
  </defs>
  
  <!-- Main background -->
  <rect width="1200" height="800" fill="url(#bgGradient)"/>
  
  <!-- Hero Banner - Full height to top -->
  <rect x="0" y="0" width="1200" height="470" fill="url(#heroGradient)"/>
  <rect x="0" y="0" width="1200" height="470" fill="url(#heroOverlay)"/>
  
  <!-- Hero content overlay at bottom -->
  <rect x="0" y="370" width="1200" height="100" fill="rgba(0,0,0,0.9)"/>
  <text x="24" y="410" font-family="Arial, sans-serif" font-size="28" font-weight="700" fill="#ffffff">Featured Movie Title</text>
  <circle cx="34" cy="440" r="8" fill="#ea580c"/>
  <text x="50" y="445" font-family="Arial, sans-serif" font-size="14" fill="#9ca3af">Continue Watching</text>
  
  <!-- Floating Navigation Bar (Netflix-style) -->
  <rect x="32" y="24" width="1136" height="56" rx="28" fill="url(#glassNav)" stroke="rgba(255,255,255,0.15)" stroke-width="1.5"/>
  
  <!-- Logo in nav (top-left) -->
  <rect x="44" y="32" width="60" height="40" rx="4" fill="#1f2937" opacity="0.8"/>
  <text x="74" y="55" font-family="Arial, sans-serif" font-size="12" fill="#2563eb" text-anchor="middle">LOGO</text>
  
  <!-- Navigation tabs in center -->
  <g transform="translate(400, 36)">
    <!-- Active tab (LIVE TV) -->
    <rect x="0" y="0" width="100" height="48" rx="24" fill="rgba(37,99,235,0.3)"/>
    <text x="50" y="28" font-family="Arial, sans-serif" font-size="14" font-weight="700" fill="#2563eb" text-anchor="middle">LIVE TV</text>
    
    <!-- Movies tab -->
    <rect x="110" y="0" width="80" height="48" rx="24" fill="transparent"/>
    <text x="150" y="28" font-family="Arial, sans-serif" font-size="14" font-weight="600" fill="#9ca3af" text-anchor="middle">Movies</text>
    
    <!-- Series tab -->
    <rect x="200" y="0" width="80" height="48" rx="24" fill="transparent"/>
    <text x="240" y="28" font-family="Arial, sans-serif" font-size="14" font-weight="600" fill="#9ca3af" text-anchor="middle">Series</text>
  </g>
  
  <!-- Search and overflow icons -->
  <circle cx="1050" cy="52" r="12" fill="transparent" stroke="#9ca3af" stroke-width="1"/>
  <text x="1050" y="57" font-family="Arial, sans-serif" font-size="12" fill="#9ca3af" text-anchor="middle">🔍</text>
  
  <circle cx="1080" cy="52" r="12" fill="transparent" stroke="#9ca3af" stroke-width="1"/>
  <text x="1080" y="57" font-family="Arial, sans-serif" font-size="12" fill="#9ca3af" text-anchor="middle">⋮</text>
  
  <!-- Time in nav (top-right) -->
  <text x="1144" y="55" font-family="Arial, sans-serif" font-size="18" font-weight="600" fill="#ffffff" text-anchor="end">05:42 PM</text>
  
  <!-- Continue Watching Section -->
  <text x="24" y="510" font-family="Arial, sans-serif" font-size="20" font-weight="700" fill="#ffffff">Continue Watching</text>
  
  <!-- Movie cards row -->
  <g transform="translate(24, 530)">
    <rect x="0" y="0" width="180" height="280" rx="12" fill="#1f2937" stroke="rgba(255,255,255,0.1)"/>
    <rect x="0" y="240" width="180" height="40" rx="0 0 12 12" fill="rgba(0,0,0,0.8)"/>
    <text x="12" y="265" font-family="Arial, sans-serif" font-size="12" font-weight="600" fill="#ffffff">Movie 1</text>
    
    <rect x="196" y="0" width="180" height="280" rx="12" fill="#1f2937" stroke="rgba(255,255,255,0.1)"/>
    <rect x="196" y="240" width="180" height="40" rx="0 0 12 12" fill="rgba(0,0,0,0.8)"/>
    <text x="208" y="265" font-family="Arial, sans-serif" font-size="12" font-weight="600" fill="#ffffff">Movie 2</text>
    
    <rect x="392" y="0" width="180" height="280" rx="12" fill="#1f2937" stroke="rgba(255,255,255,0.1)"/>
    <rect x="392" y="240" width="180" height="40" rx="0 0 12 12" fill="rgba(0,0,0,0.8)"/>
    <text x="404" y="265" font-family="Arial, sans-serif" font-size="12" font-weight="600" fill="#ffffff">Movie 3</text>
    
    <rect x="588" y="0" width="180" height="280" rx="12" fill="#1f2937" stroke="rgba(255,255,255,0.1)"/>
    <rect x="588" y="240" width="180" height="40" rx="0 0 12 12" fill="rgba(0,0,0,0.8)"/>
    <text x="600" y="265" font-family="Arial, sans-serif" font-size="12" font-weight="600" fill="#ffffff">Movie 4</text>
    
    <rect x="784" y="0" width="180" height="280" rx="12" fill="#1f2937" stroke="rgba(255,255,255,0.1)"/>
    <rect x="784" y="240" width="180" height="40" rx="0 0 12 12" fill="rgba(0,0,0,0.8)"/>
    <text x="796" y="265" font-family="Arial, sans-serif" font-size="12" font-weight="600" fill="#ffffff">Movie 5</text>
  </g>
  
  <!-- Placeholder icons for movie cards -->
  <g fill="#6b7280" opacity="0.5">
    <circle cx="114" cy="670" r="24"/>
    <text x="114" y="678" font-family="Arial, sans-serif" font-size="20" text-anchor="middle">🎬</text>
    
    <circle cx="310" cy="670" r="24"/>
    <text x="310" y="678" font-family="Arial, sans-serif" font-size="20" text-anchor="middle">🎬</text>
    
    <circle cx="506" cy="670" r="24"/>
    <text x="506" y="678" font-family="Arial, sans-serif" font-size="20" text-anchor="middle">🎬</text>
    
    <circle cx="702" cy="670" r="24"/>
    <text x="702" y="678" font-family="Arial, sans-serif" font-size="20" text-anchor="middle">🎬</text>
    
    <circle cx="898" cy="670" r="24"/>
    <text x="898" y="678" font-family="Arial, sans-serif" font-size="20" text-anchor="middle">🎬</text>
  </g>
  
  <!-- Scroll indicator -->
  <text x="1000" y="670" font-family="Arial, sans-serif" font-size="24" fill="#6b7280">→</text>
</svg>